<svg xmlns="http://www.w3.org/2000/svg" width="71" height="52.684" viewBox="0 0 71 52.684">
  <g id="iconfinder_ic_dhl_delivery_5761436" transform="translate(0 -20)">
    <path id="Path_249" data-name="Path 249" d="M70.878,45.593,61.387,26.867A12.48,12.48,0,0,0,50.2,20H1.109A1.109,1.109,0,0,0,0,21.109V64.375a1.109,1.109,0,0,0,1.109,1.109h9.474a8.043,8.043,0,0,0,16,0H48.3a8.043,8.043,0,0,0,16,0h5.591A1.109,1.109,0,0,0,71,64.375V46.1a1.059,1.059,0,0,0-.122-.5ZM2.219,42.742H4.992a1.109,1.109,0,0,0,0-2.219H2.219v-18.3H41.047v18.3H38.828a1.109,1.109,0,0,0,0,2.219h2.219V63.266H26.5a8.032,8.032,0,0,0-15.831,0H2.219ZM18.582,70.476a5.824,5.824,0,1,1,5.824-5.824,5.824,5.824,0,0,1-5.824,5.824Zm37.719,0a5.824,5.824,0,1,1,5.824-5.824A5.824,5.824,0,0,1,56.3,70.476Zm12.48-7.211H64.216a8.032,8.032,0,0,0-15.831,0h-5.12V22.219H50.2a10.267,10.267,0,0,1,9.2,5.652l9.374,18.488Z" fill="#bf4226"/>
    <path id="Path_250" data-name="Path 250" d="M19.186,56.1a4.8,4.8,0,0,0,4.437-2.357,2.7,2.7,0,0,0,.466-2.773A2.23,2.23,0,0,0,22.043,50H15.109a1.109,1.109,0,1,0,0,2.219h6.817c-.05.094-.111.2-.189.322a2.624,2.624,0,0,1-2.552,1.342H17.556a1.107,1.107,0,0,0-2.008-.632L14.76,54.36a1.1,1.1,0,0,0,.9,1.742Z" transform="translate(-6.234 -13.359)" fill="#bf4226"/>
    <path id="Path_251" data-name="Path 251" d="M33.465,55.9a1.109,1.109,0,0,0,1.548-.261l1.254-1.753H39.1l-.333.466a1.11,1.11,0,1,0,1.808,1.287l2.773-3.883a1.11,1.11,0,1,0-1.808-1.287l-.871,1.2H37.836a1.109,1.109,0,0,0-1.858-1.2L33.2,54.348A1.109,1.109,0,0,0,33.465,55.9Z" transform="translate(-14.695 -13.359)" fill="#bf4226"/>
    <path id="Path_252" data-name="Path 252" d="M51.121,55.5a1.109,1.109,0,0,0,.987.6H57.1a1.109,1.109,0,1,0,0-2.219H54.266l1.52-2.13a1.11,1.11,0,0,0-1.808-1.287L51.2,54.348A1.109,1.109,0,0,0,51.121,55.5Z" transform="translate(-22.71 -13.359)" fill="#bf4226"/>
  </g>
</svg>
