<svg xmlns="http://www.w3.org/2000/svg" width="169.065" height="33.333" viewBox="0 0 169.065 33.333">
  <g id="Logo-Maynooth-Option1" transform="translate(-0.042 0.02)">
    <path id="Path_234" data-name="Path 234" d="M27.939,33.246h0a5.123,5.123,0,0,1-5.852-4.164L18.148,5.9A5.123,5.123,0,0,1,22.312.048h0a5.123,5.123,0,0,1,5.852,4.164L32.1,27.394A5.123,5.123,0,0,1,27.939,33.246Z" transform="translate(-7.889 0)" fill="#cc4c6e"/>
    <path id="Path_235" data-name="Path 235" d="M53.026,33.246h0a5.123,5.123,0,0,1-5.852-4.164L43.235,5.9A5.041,5.041,0,0,1,47.343.048h0a5.123,5.123,0,0,1,5.852,4.164l3.939,23.183A5.041,5.041,0,0,1,53.026,33.246Z" transform="translate(-18.853 0)" fill="#cc4c6e"/>
    <path id="Path_236" data-name="Path 236" d="M3.057,32.879h0a5.1,5.1,0,0,1-2.588-6.7L10.653,3.057a5.1,5.1,0,0,1,6.7-2.588h0a5.1,5.1,0,0,1,2.588,6.7L9.7,30.291A5.008,5.008,0,0,1,3.057,32.879Z" transform="translate(0 -0.027)" fill="#f3b541"/>
    <path id="Path_237" data-name="Path 237" d="M28.057,32.879h0a5.1,5.1,0,0,1-2.588-6.7L35.653,3.057a5.1,5.1,0,0,1,6.7-2.588h0a5.1,5.1,0,0,1,2.588,6.7L34.753,30.291A5.089,5.089,0,0,1,28.057,32.879Z" transform="translate(-10.933 -0.027)" fill="#4cb3aa"/>
    <path id="Path_238" data-name="Path 238" d="M53.057,32.879h0a5.1,5.1,0,0,1-2.588-6.7L60.709,3.057a5.1,5.1,0,0,1,6.7-2.588h0a5.1,5.1,0,0,1,2.588,6.7L59.753,30.291A5.052,5.052,0,0,1,53.057,32.879Z" transform="translate(-21.865 -0.027)" fill="#842c68"/>
    <g id="Group_346" data-name="Group 346" transform="translate(55.95 9.839)">
      <path id="Path_239" data-name="Path 239" d="M100.525,18.238a.324.324,0,0,1,.338-.338h.225c.225,0,.338.056.394.281l4.164,8.947c.338.731.731,1.632.731,1.632h.056s.394-.957.731-1.632l4.164-8.947a.423.423,0,0,1,.394-.281h.225a.3.3,0,0,1,.338.338l1.125,13.955c0,.225-.113.394-.338.394H112.9a.3.3,0,0,1-.338-.338l-.9-10.86c-.056-.731-.056-1.969-.056-1.969h-.056s-.394,1.238-.731,1.969l-3.77,8.1a.423.423,0,0,1-.394.281h-.338c-.225,0-.338-.056-.394-.281l-3.77-8.1c-.338-.675-.788-1.969-.788-1.969h-.056s0,1.294-.056,1.969L100.3,32.3a.324.324,0,0,1-.338.338h-.225c-.225,0-.338-.113-.338-.394Z" transform="translate(-99.4 -17.675)"/>
      <path id="Path_240" data-name="Path 240" d="M133.4,18.281a.36.36,0,0,1,.394-.281h.394a.36.36,0,0,1,.394.281l5.233,13.955c.056.225,0,.394-.281.394h-.225a.36.36,0,0,1-.394-.281l-1.857-4.783h-6.19l-1.8,4.783a.36.36,0,0,1-.394.281h-.225c-.281,0-.394-.169-.281-.394Zm3.376,8.44-2.251-5.965c-.225-.619-.563-1.744-.563-1.744h-.056s-.338,1.125-.563,1.744l-2.251,5.965Z" transform="translate(-111.961 -17.719)"/>
      <path id="Path_241" data-name="Path 241" d="M153.665,26.272l-4.727-7.878c-.169-.225-.056-.394.225-.394h.225a.377.377,0,0,1,.394.225L153.1,23.8c.394.731.9,1.632.9,1.632h.056a15.249,15.249,0,0,1,.9-1.632l3.32-5.571a.425.425,0,0,1,.394-.225h.225c.281,0,.394.169.225.394L154.4,26.272v6.021a.3.3,0,0,1-.338.338H154a.3.3,0,0,1-.338-.338Z" transform="translate(-121.029 -17.719)"/>
      <path id="Path_242" data-name="Path 242" d="M172.2,18.338a.3.3,0,0,1,.338-.338h.225a.512.512,0,0,1,.45.225l8.215,11.31c.506.675,1.182,1.857,1.182,1.857h.056s-.113-1.125-.113-1.857v-11.2a.3.3,0,0,1,.338-.338h.169a.3.3,0,0,1,.338.338V32.292a.3.3,0,0,1-.338.338h-.225a.512.512,0,0,1-.45-.225l-8.215-11.31c-.506-.675-1.182-1.857-1.182-1.857h-.056s.113,1.125.113,1.857V32.236a.3.3,0,0,1-.338.338h-.169a.3.3,0,0,1-.338-.338Z" transform="translate(-131.236 -17.719)"/>
      <path id="Path_243" data-name="Path 243" d="M205.528,17.5a7.328,7.328,0,0,1,7.427,7.484,7.433,7.433,0,1,1-14.855,0A7.328,7.328,0,0,1,205.528,17.5Zm0,14.349A6.533,6.533,0,0,0,212,24.984a6.473,6.473,0,1,0-12.942,0A6.533,6.533,0,0,0,205.528,31.849Z" transform="translate(-142.562 -17.5)"/>
      <path id="Path_244" data-name="Path 244" d="M236.028,17.5a7.328,7.328,0,0,1,7.428,7.484,7.433,7.433,0,1,1-14.855,0A7.328,7.328,0,0,1,236.028,17.5Zm0,14.349a6.533,6.533,0,0,0,6.471-6.865,6.473,6.473,0,1,0-12.942,0A6.533,6.533,0,0,0,236.028,31.849Z" transform="translate(-155.9 -17.5)"/>
      <path id="Path_245" data-name="Path 245" d="M261.158,18.788h-5.12a.3.3,0,0,1-.338-.338v-.113a.3.3,0,0,1,.338-.338h11.141a.3.3,0,0,1,.338.338v.113a.3.3,0,0,1-.338.338h-5.12v13.5a.3.3,0,0,1-.338.338H261.5a.3.3,0,0,1-.338-.338Z" transform="translate(-167.751 -17.719)"/>
      <path id="Path_246" data-name="Path 246" d="M280.8,18.338a.3.3,0,0,1,.338-.338h.169a.3.3,0,0,1,.338.338v6.527h9.4V18.338a.3.3,0,0,1,.338-.338h.169a.3.3,0,0,1,.338.338V32.292a.3.3,0,0,1-.338.338h-.169a.3.3,0,0,1-.338-.338V25.709H281.7v6.583a.3.3,0,0,1-.338.338h-.169a.3.3,0,0,1-.338-.338V18.338Z" transform="translate(-178.728 -17.719)"/>
    </g>
  </g>
</svg>
