<svg id="Search" xmlns="http://www.w3.org/2000/svg" width="19.316" height="19.316" viewBox="0 0 19.316 19.316">
  <rect id="Rectangle_693" data-name="Rectangle 693" width="19" height="19" fill="none"/>
  <path id="Path_208" data-name="Path 208" d="M19.316,17.615l-4.009-4.009a8.318,8.318,0,0,0,1.7-5.1A8.452,8.452,0,0,0,8.5,0,8.452,8.452,0,0,0,0,8.5a8.452,8.452,0,0,0,8.5,8.5,8.318,8.318,0,0,0,5.1-1.7l4.009,4.009ZM2.43,8.5A6.015,6.015,0,0,1,8.5,2.43,6.015,6.015,0,0,1,14.578,8.5,6.015,6.015,0,0,1,8.5,14.578,6.015,6.015,0,0,1,2.43,8.5Z" fill="#bf4226"/>
</svg>
