<svg xmlns="http://www.w3.org/2000/svg" width="67" height="50.667" viewBox="0 0 67 50.667">
  <path id="secure_payment" data-name="secure payment" d="M63.634,17.753H57.341l-1.8-10.214a4.39,4.39,0,0,0-5.058-3.547L4.609,12.082A4.371,4.371,0,0,0,1.07,17.142L5.961,44.879a4.354,4.354,0,0,0,5.058,3.547l1.671-.3v2.1a4.37,4.37,0,0,0,4.365,4.365H63.634A4.372,4.372,0,0,0,68,50.229V22.119A4.372,4.372,0,0,0,63.634,17.753Zm.18,4.366v4.106H16.9l.161-4.284ZM10.084,44.153,5.983,20.9l-.646-4.7,46.079-7.94,1.674,9.489H17.056a4.37,4.37,0,0,0-4.365,4.365V43.805Zm53.55,6.252-46.755-.177V33.639H63.814V50.229A.179.179,0,0,1,63.634,50.406Z" transform="translate(-1.002 -3.927)" fill="#bf4226"/>
</svg>
