<svg id="ShoppingBag" xmlns="http://www.w3.org/2000/svg" width="24.667" height="24.667" viewBox="0 0 24.667 24.667">
  <g id="Layer_x0020_1" transform="translate(4.259 2.666)">
    <path id="Path_247" data-name="Path 247" d="M2.54,2.089H4.51a15.817,15.817,0,0,0-.315,3.258.578.578,0,1,0,1.156,0,14.449,14.449,0,0,1,.34-3.258h6.732a14.448,14.448,0,0,1,.34,3.258.578.578,0,1,0,1.156,0A15.817,15.817,0,0,0,13.6,2.089H15.66a.289.289,0,0,1,.289.277l1.069,13.027h0a.289.289,0,0,1-.264.312H1.468a.289.289,0,0,1-.287-.325L2.25,2.356l.288.023-.288-.024a.289.289,0,0,1,.29-.265Z" transform="translate(-1.179 2.794)" fill="#bf4226"/>
    <path id="Path_248" data-name="Path 248" d="M2.093,8.88a.289.289,0,0,0,.578,0c0-3.668,1.059-6,2.414-7.006a2.642,2.642,0,0,1,1.58-.558,2.642,2.642,0,0,1,1.58.558C9.6,2.88,10.661,5.212,10.661,8.88a.289.289,0,1,0,.578,0c0-3.871-1.162-6.364-2.649-7.469A3.21,3.21,0,0,0,6.666.738a3.21,3.21,0,0,0-1.924.673c-1.487,1.1-2.649,3.6-2.649,7.469Z" transform="translate(1.212 -0.738)" fill="#bf4226"/>
  </g>
  <rect id="Rectangle_1096" data-name="Rectangle 1096" width="24.667" height="24.667" fill="none"/>
</svg>
