<svg xmlns="http://www.w3.org/2000/svg" width="13.97" height="19.327" viewBox="0 0 13.97 19.327">
  <path id="XMLID_1_" d="M85.964,18.7a1.708,1.708,0,0,0-1.909.8c-.182.39-.209.923-.6,1.1a1.015,1.015,0,0,1-.877-.166c-1.329-.742-4-6.043-3.794-7.554a1.026,1.026,0,0,1,.39-.8c.375-.213.819.085,1.24.17a1.706,1.706,0,0,0,1.777-1.055,3.965,3.965,0,0,0,.17-2.2,4.564,4.564,0,0,0-.927-2.4c-1.631-1.855-4.038.015-5,1.58a8.623,8.623,0,0,0-1.121,3.327c-.352,2.481,4.1,11.344,6.306,12.546a8.6,8.6,0,0,0,3.331,1.082c1.831.162,4.768-.653,4.254-3.068a4.528,4.528,0,0,0-1.372-2.175A4,4,0,0,0,85.964,18.7Z" transform="translate(-75.291 -5.81)" fill="#bf4226"/>
</svg>
